<mxfile host="app.diagrams.net" modified="2023-03-23T16:52:56.830Z" agent="5.0 (X11; Ubuntu)" etag="G_dS3Vj_1qvLeRrt_35w" version="21.0.10" type="github" pages="2">
  <diagram name="Page-1" id="2a216829-ef6e-dabb-86c1-c78162f3ba2b">
    <mxGraphModel dx="2381" dy="1359" grid="1" gridSize="10" guides="1" tooltips="1" connect="1" arrows="1" fold="1" page="1" pageScale="1" pageWidth="827" pageHeight="1169" background="none" math="0" shadow="0">
      <root>
        <mxCell id="0" />
        <mxCell id="1" parent="0" />
        <mxCell id="7a84cebc1def654-1" value="" style="shape=mxgraph.bpmn.shape;html=1;verticalLabelPosition=bottom;labelBackgroundColor=none;verticalAlign=top;perimeter=ellipsePerimeter;outline=standard;symbol=general;rounded=1;fillColor=#FAE5C7;strokeColor=#0F8B8D;fontColor=#143642;" parent="1" vertex="1">
          <mxGeometry x="260" y="265" width="50" height="50" as="geometry" />
        </mxCell>
        <mxCell id="7a84cebc1def654-2" value="Task" style="shape=ext;rounded=1;html=1;whiteSpace=wrap;labelBackgroundColor=none;fillColor=#FAE5C7;strokeColor=#0F8B8D;fontColor=#143642;" parent="1" vertex="1">
          <mxGeometry x="360" y="250" width="120" height="80" as="geometry" />
        </mxCell>
        <mxCell id="7a84cebc1def654-3" value="Task" style="shape=ext;rounded=1;html=1;whiteSpace=wrap;labelBackgroundColor=none;fillColor=#FAE5C7;strokeColor=#0F8B8D;fontColor=#143642;" parent="1" vertex="1">
          <mxGeometry x="530" y="250" width="120" height="80" as="geometry" />
        </mxCell>
        <mxCell id="7a84cebc1def654-4" value="" style="shape=message;whiteSpace=wrap;html=1;rounded=1;labelBackgroundColor=none;fillColor=#FAE5C7;strokeColor=#0F8B8D;fontColor=#143642;" parent="1" vertex="1">
          <mxGeometry x="400" y="175" width="40" height="30" as="geometry" />
        </mxCell>
        <mxCell id="7a84cebc1def654-5" value="" style="shape=message;whiteSpace=wrap;html=1;rounded=1;labelBackgroundColor=none;fillColor=#FAE5C7;strokeColor=#0F8B8D;fontColor=#143642;" parent="1" vertex="1">
          <mxGeometry x="570" y="175" width="40" height="30" as="geometry" />
        </mxCell>
        <mxCell id="7a84cebc1def654-6" value="" style="shape=hexagon;whiteSpace=wrap;html=1;perimeter=hexagonPerimeter;rounded=1;labelBackgroundColor=none;fillColor=#FAE5C7;strokeColor=#0F8B8D;fontColor=#143642;" parent="1" vertex="1">
          <mxGeometry x="560" y="375" width="60" height="50" as="geometry" />
        </mxCell>
        <mxCell id="7a84cebc1def654-7" value="" style="html=1;shape=plus;rounded=1;labelBackgroundColor=none;fillColor=#FAE5C7;strokeColor=#0F8B8D;fontColor=#143642;" parent="7a84cebc1def654-6" vertex="1">
          <mxGeometry x="0.5" y="1" width="14" height="14" relative="1" as="geometry">
            <mxPoint x="-7" y="-14" as="offset" />
          </mxGeometry>
        </mxCell>
        <mxCell id="7a84cebc1def654-8" value="Task" style="shape=ext;rounded=1;html=1;whiteSpace=wrap;labelBackgroundColor=none;fillColor=#FAE5C7;strokeColor=#0F8B8D;fontColor=#143642;" parent="1" vertex="1">
          <mxGeometry x="530" y="475" width="120" height="80" as="geometry" />
        </mxCell>
        <mxCell id="7a84cebc1def654-9" value="" style="shape=mxgraph.bpmn.shape;html=1;verticalLabelPosition=bottom;labelBackgroundColor=none;verticalAlign=top;perimeter=rhombusPerimeter;background=gateway;outline=none;symbol=parallelGw;rounded=1;fillColor=#FAE5C7;strokeColor=#0F8B8D;fontColor=#143642;" parent="1" vertex="1">
          <mxGeometry x="695" y="490" width="50" height="50" as="geometry" />
        </mxCell>
        <mxCell id="7a84cebc1def654-12" value="Sub-Process" style="html=1;whiteSpace=wrap;rounded=1;labelBackgroundColor=none;fillColor=#FAE5C7;strokeColor=#0F8B8D;fontColor=#143642;" parent="1" vertex="1">
          <mxGeometry x="970" y="250" width="120" height="80" as="geometry" />
        </mxCell>
        <mxCell id="7a84cebc1def654-13" value="" style="html=1;shape=plus;rounded=1;labelBackgroundColor=none;fillColor=#FAE5C7;strokeColor=#0F8B8D;fontColor=#143642;" parent="7a84cebc1def654-12" vertex="1">
          <mxGeometry x="0.5" y="1" width="14" height="14" relative="1" as="geometry">
            <mxPoint x="-7" y="-14" as="offset" />
          </mxGeometry>
        </mxCell>
        <mxCell id="7a84cebc1def654-14" value="Receive" style="html=1;whiteSpace=wrap;rounded=1;labelBackgroundColor=none;fillColor=#FAE5C7;strokeColor=#0F8B8D;fontColor=#143642;" parent="1" vertex="1">
          <mxGeometry x="780" y="250" width="120" height="80" as="geometry" />
        </mxCell>
        <mxCell id="7a84cebc1def654-15" value="" style="html=1;shape=message;rounded=1;labelBackgroundColor=none;fillColor=#FAE5C7;strokeColor=#0F8B8D;fontColor=#143642;" parent="7a84cebc1def654-14" vertex="1">
          <mxGeometry width="20" height="14" relative="1" as="geometry">
            <mxPoint x="7" y="7" as="offset" />
          </mxGeometry>
        </mxCell>
        <mxCell id="7a84cebc1def654-16" value="Process" style="html=1;whiteSpace=wrap;rounded=1;labelBackgroundColor=none;fillColor=#FAE5C7;strokeColor=#0F8B8D;fontColor=#143642;" parent="1" vertex="1">
          <mxGeometry x="905" y="475" width="120" height="80" as="geometry" />
        </mxCell>
        <mxCell id="7a84cebc1def654-17" value="" style="shape=mxgraph.bpmn.timer_start;perimeter=ellipsePerimeter;html=1;labelPosition=right;labelBackgroundColor=none;align=left;rounded=1;fillColor=#FAE5C7;strokeColor=#0F8B8D;fontColor=#143642;" parent="7a84cebc1def654-16" vertex="1">
          <mxGeometry x="1" width="30" height="30" relative="1" as="geometry">
            <mxPoint x="-15" y="10" as="offset" />
          </mxGeometry>
        </mxCell>
        <mxCell id="7a84cebc1def654-18" value="Process" style="html=1;whiteSpace=wrap;rounded=1;labelBackgroundColor=none;fillColor=#FAE5C7;strokeColor=#0F8B8D;fontColor=#143642;" parent="1" vertex="1">
          <mxGeometry x="1220" y="775" width="120" height="80" as="geometry" />
        </mxCell>
        <mxCell id="7a84cebc1def654-19" value="" style="shape=mxgraph.bpmn.timer_start;perimeter=ellipsePerimeter;html=1;labelPosition=right;labelBackgroundColor=none;align=left;rounded=1;fillColor=#FAE5C7;strokeColor=#0F8B8D;fontColor=#143642;" parent="7a84cebc1def654-18" vertex="1">
          <mxGeometry x="1" width="30" height="30" relative="1" as="geometry">
            <mxPoint x="-15" y="10" as="offset" />
          </mxGeometry>
        </mxCell>
        <mxCell id="7a84cebc1def654-20" value="Receive" style="html=1;whiteSpace=wrap;rounded=1;labelBackgroundColor=none;fillColor=#FAE5C7;strokeColor=#0F8B8D;fontColor=#143642;" parent="1" vertex="1">
          <mxGeometry x="1050" y="775" width="120" height="80" as="geometry" />
        </mxCell>
        <mxCell id="7a84cebc1def654-21" value="" style="html=1;shape=message;rounded=1;labelBackgroundColor=none;fillColor=#FAE5C7;strokeColor=#0F8B8D;fontColor=#143642;" parent="7a84cebc1def654-20" vertex="1">
          <mxGeometry width="20" height="14" relative="1" as="geometry">
            <mxPoint x="7" y="7" as="offset" />
          </mxGeometry>
        </mxCell>
        <mxCell id="7a84cebc1def654-22" value="Sub-Process" style="html=1;whiteSpace=wrap;rounded=1;labelBackgroundColor=none;fillColor=#FAE5C7;strokeColor=#0F8B8D;fontColor=#143642;" parent="1" vertex="1">
          <mxGeometry x="905" y="775" width="120" height="80" as="geometry" />
        </mxCell>
        <mxCell id="7a84cebc1def654-23" value="" style="html=1;shape=plus;rounded=1;labelBackgroundColor=none;fillColor=#FAE5C7;strokeColor=#0F8B8D;fontColor=#143642;" parent="7a84cebc1def654-22" vertex="1">
          <mxGeometry x="0.5" y="1" width="14" height="14" relative="1" as="geometry">
            <mxPoint x="-7" y="-14" as="offset" />
          </mxGeometry>
        </mxCell>
        <mxCell id="7a84cebc1def654-24" value="" style="shape=mxgraph.bpmn.shape;html=1;verticalLabelPosition=bottom;labelBackgroundColor=none;verticalAlign=top;perimeter=rhombusPerimeter;background=gateway;outline=none;symbol=parallelGw;rounded=1;fillColor=#FAE5C7;strokeColor=#0F8B8D;fontColor=#143642;" parent="1" vertex="1">
          <mxGeometry x="1255" y="490" width="50" height="50" as="geometry" />
        </mxCell>
        <mxCell id="7a84cebc1def654-26" value="" style="shape=mxgraph.bpmn.shape;html=1;verticalLabelPosition=bottom;labelBackgroundColor=none;verticalAlign=top;perimeter=ellipsePerimeter;outline=end;symbol=general;rounded=1;fillColor=#FAE5C7;strokeColor=#0F8B8D;fontColor=#143642;" parent="1" vertex="1">
          <mxGeometry x="1390" y="490.00000000000006" width="50" height="50" as="geometry" />
        </mxCell>
        <mxCell id="7a84cebc1def654-27" value="" style="shape=message;whiteSpace=wrap;html=1;rounded=1;labelBackgroundColor=none;fillColor=#FAE5C7;strokeColor=#0F8B8D;fontColor=#143642;" parent="1" vertex="1">
          <mxGeometry x="820" y="175" width="40" height="30" as="geometry" />
        </mxCell>
        <mxCell id="7a84cebc1def654-28" value="" style="shape=message;whiteSpace=wrap;html=1;rounded=1;labelBackgroundColor=none;fillColor=#FAE5C7;strokeColor=#0F8B8D;fontColor=#143642;" parent="1" vertex="1">
          <mxGeometry x="1010" y="175" width="40" height="30" as="geometry" />
        </mxCell>
        <mxCell id="7a84cebc1def654-29" value="Sub-Process" style="html=1;whiteSpace=wrap;rounded=1;labelBackgroundColor=none;fillColor=#FAE5C7;strokeColor=#0F8B8D;fontColor=#143642;" parent="1" vertex="1">
          <mxGeometry x="660" y="655" width="120" height="80" as="geometry" />
        </mxCell>
        <mxCell id="7a84cebc1def654-30" value="" style="html=1;shape=plus;rounded=1;labelBackgroundColor=none;fillColor=#FAE5C7;strokeColor=#0F8B8D;fontColor=#143642;" parent="7a84cebc1def654-29" vertex="1">
          <mxGeometry x="0.5" y="1" width="14" height="14" relative="1" as="geometry">
            <mxPoint x="-7" y="-14" as="offset" />
          </mxGeometry>
        </mxCell>
        <mxCell id="7a84cebc1def654-31" value="" style="shape=message;whiteSpace=wrap;html=1;rounded=1;labelBackgroundColor=none;fillColor=#FAE5C7;strokeColor=#0F8B8D;fontColor=#143642;" parent="1" vertex="1">
          <mxGeometry x="700" y="775" width="40" height="30" as="geometry" />
        </mxCell>
        <mxCell id="7a84cebc1def654-32" value="" style="shape=message;whiteSpace=wrap;html=1;rounded=1;labelBackgroundColor=none;fillColor=#FAE5C7;strokeColor=#0F8B8D;fontColor=#143642;" parent="1" vertex="1">
          <mxGeometry x="1090" y="895" width="40" height="30" as="geometry" />
        </mxCell>
        <mxCell id="7a84cebc1def654-33" value="" style="shape=message;whiteSpace=wrap;html=1;rounded=1;labelBackgroundColor=none;fillColor=#FAE5C7;strokeColor=#0F8B8D;fontColor=#143642;" parent="1" vertex="1">
          <mxGeometry x="1260" y="895" width="40" height="30" as="geometry" />
        </mxCell>
        <mxCell id="7a84cebc1def654-34" value="" style="shape=message;whiteSpace=wrap;html=1;rounded=1;labelBackgroundColor=none;fillColor=#FAE5C7;strokeColor=#0F8B8D;fontColor=#143642;" parent="1" vertex="1">
          <mxGeometry x="945" y="895" width="40" height="30" as="geometry" />
        </mxCell>
        <mxCell id="7a84cebc1def654-35" value="" style="shape=message;whiteSpace=wrap;html=1;rounded=1;labelBackgroundColor=none;fillColor=#FAE5C7;strokeColor=#0F8B8D;fontColor=#143642;" parent="1" vertex="1">
          <mxGeometry x="945" y="595" width="40" height="30" as="geometry" />
        </mxCell>
        <mxCell id="7a84cebc1def654-36" style="edgeStyle=orthogonalEdgeStyle;rounded=1;html=1;jettySize=auto;orthogonalLoop=1;labelBackgroundColor=none;fontColor=default;strokeColor=#A8201A;" parent="1" source="7a84cebc1def654-1" target="7a84cebc1def654-2" edge="1">
          <mxGeometry relative="1" as="geometry" />
        </mxCell>
        <mxCell id="7a84cebc1def654-37" style="edgeStyle=orthogonalEdgeStyle;rounded=1;html=1;jettySize=auto;orthogonalLoop=1;endArrow=none;endFill=0;labelBackgroundColor=none;fontColor=default;strokeColor=#A8201A;" parent="1" source="7a84cebc1def654-4" target="7a84cebc1def654-2" edge="1">
          <mxGeometry relative="1" as="geometry" />
        </mxCell>
        <mxCell id="7a84cebc1def654-38" style="edgeStyle=orthogonalEdgeStyle;rounded=1;html=1;jettySize=auto;orthogonalLoop=1;endArrow=none;endFill=0;labelBackgroundColor=none;fontColor=default;strokeColor=#A8201A;" parent="1" source="7a84cebc1def654-5" target="7a84cebc1def654-3" edge="1">
          <mxGeometry relative="1" as="geometry" />
        </mxCell>
        <mxCell id="7a84cebc1def654-39" style="edgeStyle=orthogonalEdgeStyle;rounded=1;html=1;jettySize=auto;orthogonalLoop=1;labelBackgroundColor=none;fontColor=default;strokeColor=#A8201A;" parent="1" source="7a84cebc1def654-2" target="7a84cebc1def654-3" edge="1">
          <mxGeometry relative="1" as="geometry" />
        </mxCell>
        <mxCell id="7a84cebc1def654-40" style="edgeStyle=orthogonalEdgeStyle;rounded=1;html=1;jettySize=auto;orthogonalLoop=1;labelBackgroundColor=none;fontColor=default;strokeColor=#A8201A;" parent="1" source="7a84cebc1def654-14" target="7a84cebc1def654-12" edge="1">
          <mxGeometry relative="1" as="geometry" />
        </mxCell>
        <mxCell id="7a84cebc1def654-41" style="edgeStyle=orthogonalEdgeStyle;rounded=1;html=1;jettySize=auto;orthogonalLoop=1;endArrow=none;endFill=0;labelBackgroundColor=none;fontColor=default;strokeColor=#A8201A;" parent="1" source="7a84cebc1def654-27" target="7a84cebc1def654-14" edge="1">
          <mxGeometry relative="1" as="geometry" />
        </mxCell>
        <mxCell id="7a84cebc1def654-42" style="edgeStyle=orthogonalEdgeStyle;rounded=1;html=1;jettySize=auto;orthogonalLoop=1;endArrow=none;endFill=0;labelBackgroundColor=none;fontColor=default;strokeColor=#A8201A;" parent="1" source="7a84cebc1def654-28" target="7a84cebc1def654-12" edge="1">
          <mxGeometry relative="1" as="geometry" />
        </mxCell>
        <mxCell id="7a84cebc1def654-43" style="edgeStyle=orthogonalEdgeStyle;rounded=1;html=1;jettySize=auto;orthogonalLoop=1;labelBackgroundColor=none;fontColor=default;strokeColor=#A8201A;" parent="1" source="7a84cebc1def654-12" target="7a84cebc1def654-24" edge="1">
          <mxGeometry relative="1" as="geometry">
            <mxPoint x="1289.9999999999995" y="475" as="targetPoint" />
            <Array as="points">
              <mxPoint x="1280" y="290" />
            </Array>
          </mxGeometry>
        </mxCell>
        <mxCell id="7a84cebc1def654-44" style="edgeStyle=orthogonalEdgeStyle;rounded=1;html=1;jettySize=auto;orthogonalLoop=1;labelBackgroundColor=none;fontColor=default;strokeColor=#A8201A;" parent="1" source="7a84cebc1def654-16" target="7a84cebc1def654-24" edge="1">
          <mxGeometry relative="1" as="geometry" />
        </mxCell>
        <mxCell id="7a84cebc1def654-45" style="edgeStyle=orthogonalEdgeStyle;rounded=1;html=1;jettySize=auto;orthogonalLoop=1;labelBackgroundColor=none;fontColor=default;strokeColor=#A8201A;" parent="1" source="7a84cebc1def654-18" target="7a84cebc1def654-24" edge="1">
          <mxGeometry relative="1" as="geometry" />
        </mxCell>
        <mxCell id="7a84cebc1def654-46" style="edgeStyle=orthogonalEdgeStyle;rounded=1;html=1;jettySize=auto;orthogonalLoop=1;labelBackgroundColor=none;fontColor=default;strokeColor=#A8201A;" parent="1" source="7a84cebc1def654-24" target="7a84cebc1def654-26" edge="1">
          <mxGeometry relative="1" as="geometry" />
        </mxCell>
        <mxCell id="7a84cebc1def654-47" style="edgeStyle=orthogonalEdgeStyle;rounded=1;html=1;jettySize=auto;orthogonalLoop=1;labelBackgroundColor=none;fontColor=default;strokeColor=#A8201A;" parent="1" source="7a84cebc1def654-3" target="7a84cebc1def654-6" edge="1">
          <mxGeometry relative="1" as="geometry" />
        </mxCell>
        <mxCell id="7a84cebc1def654-48" style="edgeStyle=orthogonalEdgeStyle;rounded=1;html=1;jettySize=auto;orthogonalLoop=1;labelBackgroundColor=none;fontColor=default;strokeColor=#A8201A;" parent="1" source="7a84cebc1def654-6" target="7a84cebc1def654-8" edge="1">
          <mxGeometry relative="1" as="geometry" />
        </mxCell>
        <mxCell id="7a84cebc1def654-49" style="edgeStyle=orthogonalEdgeStyle;rounded=1;html=1;jettySize=auto;orthogonalLoop=1;labelBackgroundColor=none;fontColor=default;strokeColor=#A8201A;" parent="1" source="7a84cebc1def654-8" target="7a84cebc1def654-9" edge="1">
          <mxGeometry relative="1" as="geometry" />
        </mxCell>
        <mxCell id="7a84cebc1def654-50" style="edgeStyle=orthogonalEdgeStyle;rounded=1;html=1;jettySize=auto;orthogonalLoop=1;labelBackgroundColor=none;fontColor=default;strokeColor=#A8201A;" parent="1" source="7a84cebc1def654-9" target="7a84cebc1def654-14" edge="1">
          <mxGeometry relative="1" as="geometry">
            <Array as="points">
              <mxPoint x="720" y="290" />
            </Array>
          </mxGeometry>
        </mxCell>
        <mxCell id="7a84cebc1def654-51" style="edgeStyle=orthogonalEdgeStyle;rounded=1;html=1;jettySize=auto;orthogonalLoop=1;labelBackgroundColor=none;fontColor=default;strokeColor=#A8201A;" parent="1" source="7a84cebc1def654-9" target="7a84cebc1def654-29" edge="1">
          <mxGeometry relative="1" as="geometry" />
        </mxCell>
        <mxCell id="7a84cebc1def654-52" style="edgeStyle=orthogonalEdgeStyle;rounded=1;html=1;jettySize=auto;orthogonalLoop=1;endArrow=none;endFill=0;labelBackgroundColor=none;fontColor=default;strokeColor=#A8201A;" parent="1" source="7a84cebc1def654-31" target="7a84cebc1def654-29" edge="1">
          <mxGeometry relative="1" as="geometry" />
        </mxCell>
        <mxCell id="7a84cebc1def654-53" value="" style="shape=mxgraph.bpmn.shape;html=1;verticalLabelPosition=bottom;labelBackgroundColor=none;verticalAlign=top;perimeter=rhombusPerimeter;background=gateway;outline=none;symbol=parallelGw;rounded=1;fillColor=#FAE5C7;strokeColor=#0F8B8D;fontColor=#143642;" parent="1" vertex="1">
          <mxGeometry x="830" y="670" width="50" height="50" as="geometry" />
        </mxCell>
        <mxCell id="7a84cebc1def654-54" style="edgeStyle=orthogonalEdgeStyle;rounded=1;html=1;jettySize=auto;orthogonalLoop=1;labelBackgroundColor=none;fontColor=default;strokeColor=#A8201A;" parent="1" source="7a84cebc1def654-53" target="7a84cebc1def654-22" edge="1">
          <mxGeometry relative="1" as="geometry">
            <Array as="points">
              <mxPoint x="855" y="815" />
            </Array>
          </mxGeometry>
        </mxCell>
        <mxCell id="7a84cebc1def654-55" style="edgeStyle=orthogonalEdgeStyle;rounded=1;html=1;jettySize=auto;orthogonalLoop=1;labelBackgroundColor=none;fontColor=default;strokeColor=#A8201A;" parent="1" source="7a84cebc1def654-53" target="7a84cebc1def654-16" edge="1">
          <mxGeometry relative="1" as="geometry">
            <Array as="points">
              <mxPoint x="855" y="515" />
            </Array>
          </mxGeometry>
        </mxCell>
        <mxCell id="7a84cebc1def654-56" style="edgeStyle=orthogonalEdgeStyle;rounded=1;html=1;jettySize=auto;orthogonalLoop=1;endArrow=none;endFill=0;labelBackgroundColor=none;fontColor=default;strokeColor=#A8201A;" parent="1" source="7a84cebc1def654-35" target="7a84cebc1def654-16" edge="1">
          <mxGeometry relative="1" as="geometry" />
        </mxCell>
        <mxCell id="7a84cebc1def654-58" style="edgeStyle=orthogonalEdgeStyle;rounded=1;html=1;jettySize=auto;orthogonalLoop=1;labelBackgroundColor=none;fontColor=default;strokeColor=#A8201A;" parent="1" source="7a84cebc1def654-29" target="7a84cebc1def654-53" edge="1">
          <mxGeometry relative="1" as="geometry" />
        </mxCell>
        <mxCell id="7a84cebc1def654-59" style="edgeStyle=orthogonalEdgeStyle;rounded=1;html=1;jettySize=auto;orthogonalLoop=1;labelBackgroundColor=none;fontColor=default;strokeColor=#A8201A;" parent="1" source="7a84cebc1def654-22" target="7a84cebc1def654-20" edge="1">
          <mxGeometry relative="1" as="geometry" />
        </mxCell>
        <mxCell id="7a84cebc1def654-60" style="edgeStyle=orthogonalEdgeStyle;rounded=1;html=1;jettySize=auto;orthogonalLoop=1;endArrow=none;endFill=0;labelBackgroundColor=none;fontColor=default;strokeColor=#A8201A;" parent="1" source="7a84cebc1def654-34" target="7a84cebc1def654-22" edge="1">
          <mxGeometry relative="1" as="geometry" />
        </mxCell>
        <mxCell id="7a84cebc1def654-61" style="edgeStyle=orthogonalEdgeStyle;rounded=1;html=1;jettySize=auto;orthogonalLoop=1;endArrow=none;endFill=0;labelBackgroundColor=none;fontColor=default;strokeColor=#A8201A;" parent="1" source="7a84cebc1def654-32" target="7a84cebc1def654-20" edge="1">
          <mxGeometry relative="1" as="geometry" />
        </mxCell>
        <mxCell id="7a84cebc1def654-63" style="edgeStyle=orthogonalEdgeStyle;rounded=1;html=1;jettySize=auto;orthogonalLoop=1;endArrow=none;endFill=0;labelBackgroundColor=none;fontColor=default;strokeColor=#A8201A;" parent="1" source="7a84cebc1def654-33" target="7a84cebc1def654-18" edge="1">
          <mxGeometry relative="1" as="geometry" />
        </mxCell>
        <mxCell id="7a84cebc1def654-64" style="edgeStyle=orthogonalEdgeStyle;rounded=1;html=1;jettySize=auto;orthogonalLoop=1;labelBackgroundColor=none;fontColor=default;strokeColor=#A8201A;" parent="1" source="7a84cebc1def654-20" target="7a84cebc1def654-18" edge="1">
          <mxGeometry relative="1" as="geometry" />
        </mxCell>
      </root>
    </mxGraphModel>
  </diagram>
  <diagram id="r-hssegChHwMBUFeodyW" name="Offboarding">
    <mxGraphModel dx="1675" dy="951" grid="1" gridSize="10" guides="1" tooltips="1" connect="1" arrows="1" fold="1" page="1" pageScale="1" pageWidth="1169" pageHeight="827" math="0" shadow="0">
      <root>
        <mxCell id="0" />
        <mxCell id="1" parent="0" />
        <mxCell id="hDukkaT7l1Hp4GkBRoLi-1" value="Eagle Ops" style="swimlane;childLayout=stackLayout;resizeParent=1;resizeParentMax=0;horizontal=0;startSize=20;horizontalStack=0;html=1;rounded=1;" vertex="1" parent="1">
          <mxGeometry x="40" y="475" width="1070" height="250" as="geometry" />
        </mxCell>
        <mxCell id="hDukkaT7l1Hp4GkBRoLi-3" value="&lt;div&gt;HR Manager&lt;/div&gt;" style="swimlane;startSize=20;horizontal=0;html=1;rounded=1;" vertex="1" parent="hDukkaT7l1Hp4GkBRoLi-1">
          <mxGeometry x="20" width="1050" height="130" as="geometry" />
        </mxCell>
        <mxCell id="hDukkaT7l1Hp4GkBRoLi-24" style="edgeStyle=orthogonalEdgeStyle;rounded=1;orthogonalLoop=1;jettySize=auto;html=1;entryX=0.021;entryY=0.486;entryDx=0;entryDy=0;entryPerimeter=0;" edge="1" parent="hDukkaT7l1Hp4GkBRoLi-3" source="hDukkaT7l1Hp4GkBRoLi-18" target="hDukkaT7l1Hp4GkBRoLi-14">
          <mxGeometry relative="1" as="geometry" />
        </mxCell>
        <mxCell id="hDukkaT7l1Hp4GkBRoLi-18" value="Notify leaving" style="points=[[0.145,0.145,0],[0.5,0,0],[0.855,0.145,0],[1,0.5,0],[0.855,0.855,0],[0.5,1,0],[0.145,0.855,0],[0,0.5,0]];shape=mxgraph.bpmn.event;html=1;verticalLabelPosition=bottom;labelBackgroundColor=#ffffff;verticalAlign=top;align=center;perimeter=ellipsePerimeter;outlineConnect=0;aspect=fixed;outline=standard;symbol=message;rounded=1;" vertex="1" parent="hDukkaT7l1Hp4GkBRoLi-3">
          <mxGeometry x="80" y="30" width="50" height="50" as="geometry" />
        </mxCell>
        <mxCell id="hDukkaT7l1Hp4GkBRoLi-30" style="edgeStyle=orthogonalEdgeStyle;rounded=1;orthogonalLoop=1;jettySize=auto;html=1;entryX=0;entryY=0.5;entryDx=0;entryDy=0;entryPerimeter=0;" edge="1" parent="hDukkaT7l1Hp4GkBRoLi-3" source="hDukkaT7l1Hp4GkBRoLi-14" target="hDukkaT7l1Hp4GkBRoLi-27">
          <mxGeometry relative="1" as="geometry" />
        </mxCell>
        <mxCell id="hDukkaT7l1Hp4GkBRoLi-14" value="Send &#xa;confirmation" style="shape=mxgraph.bpmn.task;rectStyle=rounded;size=10;taskMarker=send;labelBackgroundColor=#ffffff;" vertex="1" parent="hDukkaT7l1Hp4GkBRoLi-3">
          <mxGeometry x="180" y="25" width="100" height="60" as="geometry" />
        </mxCell>
        <mxCell id="hDukkaT7l1Hp4GkBRoLi-36" style="edgeStyle=orthogonalEdgeStyle;rounded=1;orthogonalLoop=1;jettySize=auto;html=1;entryX=0;entryY=0.5;entryDx=0;entryDy=0;entryPerimeter=0;" edge="1" parent="hDukkaT7l1Hp4GkBRoLi-3" source="hDukkaT7l1Hp4GkBRoLi-27" target="hDukkaT7l1Hp4GkBRoLi-42">
          <mxGeometry relative="1" as="geometry" />
        </mxCell>
        <mxCell id="hDukkaT7l1Hp4GkBRoLi-27" value="Start Securing Knowledge" style="points=[[0.25,0,0],[0.5,0,0],[0.75,0,0],[1,0.25,0],[1,0.5,0],[1,0.75,0],[0.75,1,0],[0.5,1,0],[0.25,1,0],[0,0.75,0],[0,0.5,0],[0,0.25,0]];shape=mxgraph.bpmn.task;whiteSpace=wrap;rectStyle=rounded;size=10;html=1;container=1;expand=0;collapsible=0;taskMarker=abstract;rounded=1;" vertex="1" parent="hDukkaT7l1Hp4GkBRoLi-3">
          <mxGeometry x="310" y="25" width="100" height="60" as="geometry" />
        </mxCell>
        <mxCell id="hDukkaT7l1Hp4GkBRoLi-43" style="edgeStyle=orthogonalEdgeStyle;rounded=1;orthogonalLoop=1;jettySize=auto;html=1;" edge="1" parent="hDukkaT7l1Hp4GkBRoLi-3" source="hDukkaT7l1Hp4GkBRoLi-42" target="hDukkaT7l1Hp4GkBRoLi-35">
          <mxGeometry relative="1" as="geometry" />
        </mxCell>
        <mxCell id="hDukkaT7l1Hp4GkBRoLi-42" value="Understand the reason&lt;br&gt;(Exit interview)" style="points=[[0.25,0,0],[0.5,0,0],[0.75,0,0],[1,0.25,0],[1,0.5,0],[1,0.75,0],[0.75,1,0],[0.5,1,0],[0.25,1,0],[0,0.75,0],[0,0.5,0],[0,0.25,0]];shape=mxgraph.bpmn.task;whiteSpace=wrap;rectStyle=rounded;size=10;html=1;container=1;expand=0;collapsible=0;taskMarker=abstract;rounded=1;" vertex="1" parent="hDukkaT7l1Hp4GkBRoLi-3">
          <mxGeometry x="440" y="25" width="105" height="60" as="geometry" />
        </mxCell>
        <mxCell id="hDukkaT7l1Hp4GkBRoLi-45" style="edgeStyle=orthogonalEdgeStyle;rounded=1;orthogonalLoop=1;jettySize=auto;html=1;" edge="1" parent="hDukkaT7l1Hp4GkBRoLi-3" source="hDukkaT7l1Hp4GkBRoLi-35" target="hDukkaT7l1Hp4GkBRoLi-44">
          <mxGeometry relative="1" as="geometry" />
        </mxCell>
        <mxCell id="hDukkaT7l1Hp4GkBRoLi-35" value="Request individual&#39;s removal systems access" style="points=[[0.25,0,0],[0.5,0,0],[0.75,0,0],[1,0.25,0],[1,0.5,0],[1,0.75,0],[0.75,1,0],[0.5,1,0],[0.25,1,0],[0,0.75,0],[0,0.5,0],[0,0.25,0]];shape=mxgraph.bpmn.task;whiteSpace=wrap;rectStyle=rounded;size=10;html=1;container=1;expand=0;collapsible=0;taskMarker=abstract;rounded=1;" vertex="1" parent="hDukkaT7l1Hp4GkBRoLi-3">
          <mxGeometry x="570" y="25" width="120" height="60" as="geometry" />
        </mxCell>
        <mxCell id="hDukkaT7l1Hp4GkBRoLi-68" value="" style="edgeStyle=orthogonalEdgeStyle;rounded=1;orthogonalLoop=1;jettySize=auto;html=1;entryX=0;entryY=0.5;entryDx=0;entryDy=0;entryPerimeter=0;" edge="1" parent="hDukkaT7l1Hp4GkBRoLi-3" source="hDukkaT7l1Hp4GkBRoLi-44" target="hDukkaT7l1Hp4GkBRoLi-70">
          <mxGeometry relative="1" as="geometry">
            <mxPoint x="890" y="55" as="targetPoint" />
          </mxGeometry>
        </mxCell>
        <mxCell id="hDukkaT7l1Hp4GkBRoLi-44" value="Announce leaving in All Hands" style="points=[[0.25,0,0],[0.5,0,0],[0.75,0,0],[1,0.25,0],[1,0.5,0],[1,0.75,0],[0.75,1,0],[0.5,1,0],[0.25,1,0],[0,0.75,0],[0,0.5,0],[0,0.25,0]];shape=mxgraph.bpmn.task;whiteSpace=wrap;rectStyle=rounded;size=10;html=1;container=1;expand=0;collapsible=0;taskMarker=abstract;rounded=1;" vertex="1" parent="hDukkaT7l1Hp4GkBRoLi-3">
          <mxGeometry x="723.62" y="25" width="105" height="60" as="geometry" />
        </mxCell>
        <mxCell id="hDukkaT7l1Hp4GkBRoLi-55" value="" style="image;html=1;image=img/lib/atlassian/Jira_Logo.svg;rounded=1;aspect=fixed;" vertex="1" parent="hDukkaT7l1Hp4GkBRoLi-3">
          <mxGeometry x="640" y="93.62" width="23.622" height="23.62" as="geometry" />
        </mxCell>
        <mxCell id="hDukkaT7l1Hp4GkBRoLi-56" value="Jira ticket" style="text;html=1;strokeColor=none;fillColor=none;align=center;verticalAlign=middle;whiteSpace=wrap;rounded=0;" vertex="1" parent="hDukkaT7l1Hp4GkBRoLi-3">
          <mxGeometry x="663.62" y="93.62" width="60" height="30" as="geometry" />
        </mxCell>
        <mxCell id="hDukkaT7l1Hp4GkBRoLi-70" value="" style="points=[[0.145,0.145,0],[0.5,0,0],[0.855,0.145,0],[1,0.5,0],[0.855,0.855,0],[0.5,1,0],[0.145,0.855,0],[0,0.5,0]];shape=mxgraph.bpmn.event;html=1;verticalLabelPosition=bottom;labelBackgroundColor=#ffffff;verticalAlign=top;align=center;perimeter=ellipsePerimeter;outlineConnect=0;aspect=fixed;outline=end;symbol=message;rounded=1;" vertex="1" parent="hDukkaT7l1Hp4GkBRoLi-3">
          <mxGeometry x="920" y="43.62" width="50" height="50" as="geometry" />
        </mxCell>
        <mxCell id="hDukkaT7l1Hp4GkBRoLi-81" value="Removal process of systems access completed" style="text;html=1;align=center;verticalAlign=middle;whiteSpace=wrap;rounded=0;" vertex="1" parent="hDukkaT7l1Hp4GkBRoLi-3">
          <mxGeometry x="840" y="10" width="150" height="30" as="geometry" />
        </mxCell>
        <mxCell id="hDukkaT7l1Hp4GkBRoLi-4" value="DevOps" style="swimlane;startSize=20;horizontal=0;html=1;rounded=1;" vertex="1" parent="hDukkaT7l1Hp4GkBRoLi-1">
          <mxGeometry x="20" y="130" width="1050" height="120" as="geometry" />
        </mxCell>
        <mxCell id="hDukkaT7l1Hp4GkBRoLi-59" value="" style="edgeStyle=orthogonalEdgeStyle;rounded=1;orthogonalLoop=1;jettySize=auto;html=1;entryX=0;entryY=0.5;entryDx=0;entryDy=0;entryPerimeter=0;" edge="1" parent="hDukkaT7l1Hp4GkBRoLi-4" source="hDukkaT7l1Hp4GkBRoLi-53" target="hDukkaT7l1Hp4GkBRoLi-61">
          <mxGeometry relative="1" as="geometry">
            <mxPoint x="740" y="48" as="targetPoint" />
          </mxGeometry>
        </mxCell>
        <mxCell id="hDukkaT7l1Hp4GkBRoLi-53" value="Receive removal systems access notification" style="points=[[0.25,0,0],[0.5,0,0],[0.75,0,0],[1,0.25,0],[1,0.5,0],[1,0.75,0],[0.75,1,0],[0.5,1,0],[0.25,1,0],[0,0.75,0],[0,0.5,0],[0,0.25,0]];shape=mxgraph.bpmn.task;whiteSpace=wrap;rectStyle=rounded;size=10;html=1;container=1;expand=0;collapsible=0;taskMarker=abstract;rounded=1;" vertex="1" parent="hDukkaT7l1Hp4GkBRoLi-4">
          <mxGeometry x="410" y="18" width="120" height="60" as="geometry" />
        </mxCell>
        <mxCell id="hDukkaT7l1Hp4GkBRoLi-65" value="" style="edgeStyle=orthogonalEdgeStyle;rounded=1;orthogonalLoop=1;jettySize=auto;html=1;" edge="1" parent="hDukkaT7l1Hp4GkBRoLi-4" source="hDukkaT7l1Hp4GkBRoLi-61" target="hDukkaT7l1Hp4GkBRoLi-64">
          <mxGeometry relative="1" as="geometry" />
        </mxCell>
        <mxCell id="hDukkaT7l1Hp4GkBRoLi-61" value="Run manual off boarding process" style="points=[[0.25,0,0],[0.5,0,0],[0.75,0,0],[1,0.25,0],[1,0.5,0],[1,0.75,0],[0.75,1,0],[0.5,1,0],[0.25,1,0],[0,0.75,0],[0,0.5,0],[0,0.25,0]];shape=mxgraph.bpmn.task;whiteSpace=wrap;rectStyle=rounded;size=10;html=1;container=1;expand=0;collapsible=0;taskMarker=manual;rounded=1;" vertex="1" parent="hDukkaT7l1Hp4GkBRoLi-4">
          <mxGeometry x="640" y="17" width="120" height="62" as="geometry" />
        </mxCell>
        <mxCell id="hDukkaT7l1Hp4GkBRoLi-64" value="Close Jira ticket to notify process completion" style="whiteSpace=wrap;html=1;rounded=1;" vertex="1" parent="hDukkaT7l1Hp4GkBRoLi-4">
          <mxGeometry x="840" y="18" width="170" height="60" as="geometry" />
        </mxCell>
        <mxCell id="hDukkaT7l1Hp4GkBRoLi-54" style="edgeStyle=orthogonalEdgeStyle;rounded=1;orthogonalLoop=1;jettySize=auto;html=1;entryX=0.5;entryY=0;entryDx=0;entryDy=0;entryPerimeter=0;dashed=1;endArrow=block;endFill=0;" edge="1" parent="hDukkaT7l1Hp4GkBRoLi-1" source="hDukkaT7l1Hp4GkBRoLi-35" target="hDukkaT7l1Hp4GkBRoLi-53">
          <mxGeometry relative="1" as="geometry">
            <Array as="points">
              <mxPoint x="650" y="110" />
              <mxPoint x="490" y="110" />
            </Array>
          </mxGeometry>
        </mxCell>
        <mxCell id="hDukkaT7l1Hp4GkBRoLi-69" style="edgeStyle=orthogonalEdgeStyle;rounded=1;orthogonalLoop=1;jettySize=auto;html=1;dashed=1;endArrow=block;endFill=0;exitX=0.174;exitY=0.017;exitDx=0;exitDy=0;exitPerimeter=0;" edge="1" parent="hDukkaT7l1Hp4GkBRoLi-1" source="hDukkaT7l1Hp4GkBRoLi-64" target="hDukkaT7l1Hp4GkBRoLi-70">
          <mxGeometry relative="1" as="geometry">
            <mxPoint x="965" y="85" as="targetPoint" />
          </mxGeometry>
        </mxCell>
        <mxCell id="hDukkaT7l1Hp4GkBRoLi-5" value="&lt;div&gt;Employee&lt;/div&gt;" style="swimlane;startSize=20;horizontal=0;html=1;whiteSpace=wrap;rounded=1;" vertex="1" parent="1">
          <mxGeometry x="40" y="140" width="1070" height="120" as="geometry" />
        </mxCell>
        <mxCell id="hDukkaT7l1Hp4GkBRoLi-9" value="" style="edgeStyle=orthogonalEdgeStyle;orthogonalLoop=1;jettySize=auto;html=1;" edge="1" parent="hDukkaT7l1Hp4GkBRoLi-5" source="hDukkaT7l1Hp4GkBRoLi-6" target="hDukkaT7l1Hp4GkBRoLi-8">
          <mxGeometry relative="1" as="geometry" />
        </mxCell>
        <mxCell id="hDukkaT7l1Hp4GkBRoLi-6" value="Start" style="points=[[0.145,0.145,0],[0.5,0,0],[0.855,0.145,0],[1,0.5,0],[0.855,0.855,0],[0.5,1,0],[0.145,0.855,0],[0,0.5,0]];shape=mxgraph.bpmn.event;html=1;verticalLabelPosition=bottom;labelBackgroundColor=#ffffff;verticalAlign=top;align=center;perimeter=ellipsePerimeter;outlineConnect=0;aspect=fixed;outline=standard;symbol=general;rounded=1;" vertex="1" parent="hDukkaT7l1Hp4GkBRoLi-5">
          <mxGeometry x="50" y="30" width="50" height="50" as="geometry" />
        </mxCell>
        <mxCell id="hDukkaT7l1Hp4GkBRoLi-17" style="edgeStyle=orthogonalEdgeStyle;rounded=1;orthogonalLoop=1;jettySize=auto;html=1;" edge="1" parent="hDukkaT7l1Hp4GkBRoLi-5" source="hDukkaT7l1Hp4GkBRoLi-8" target="hDukkaT7l1Hp4GkBRoLi-16">
          <mxGeometry relative="1" as="geometry" />
        </mxCell>
        <mxCell id="hDukkaT7l1Hp4GkBRoLi-8" value="Notify leaving" style="shape=mxgraph.bpmn.task;rectStyle=rounded;size=10;taskMarker=send;labelBackgroundColor=#ffffff;" vertex="1" parent="hDukkaT7l1Hp4GkBRoLi-5">
          <mxGeometry x="130" y="25" width="100" height="60" as="geometry" />
        </mxCell>
        <mxCell id="hDukkaT7l1Hp4GkBRoLi-26" style="edgeStyle=orthogonalEdgeStyle;rounded=1;orthogonalLoop=1;jettySize=auto;html=1;entryX=0;entryY=0.5;entryDx=0;entryDy=0;entryPerimeter=0;" edge="1" parent="hDukkaT7l1Hp4GkBRoLi-5" source="hDukkaT7l1Hp4GkBRoLi-16" target="hDukkaT7l1Hp4GkBRoLi-12">
          <mxGeometry relative="1" as="geometry" />
        </mxCell>
        <mxCell id="hDukkaT7l1Hp4GkBRoLi-16" value="" style="points=[[0.145,0.145,0],[0.5,0,0],[0.855,0.145,0],[1,0.5,0],[0.855,0.855,0],[0.5,1,0],[0.145,0.855,0],[0,0.5,0]];shape=mxgraph.bpmn.event;html=1;verticalLabelPosition=bottom;labelBackgroundColor=#ffffff;verticalAlign=top;align=center;perimeter=ellipsePerimeter;outlineConnect=0;aspect=fixed;outline=standard;symbol=timer;rounded=1;" vertex="1" parent="hDukkaT7l1Hp4GkBRoLi-5">
          <mxGeometry x="310" y="30" width="50" height="50" as="geometry" />
        </mxCell>
        <mxCell id="hDukkaT7l1Hp4GkBRoLi-49" style="edgeStyle=orthogonalEdgeStyle;rounded=1;orthogonalLoop=1;jettySize=auto;html=1;" edge="1" parent="hDukkaT7l1Hp4GkBRoLi-5" source="hDukkaT7l1Hp4GkBRoLi-12" target="hDukkaT7l1Hp4GkBRoLi-8">
          <mxGeometry relative="1" as="geometry">
            <Array as="points">
              <mxPoint x="455" y="-20" />
              <mxPoint x="180" y="-20" />
            </Array>
          </mxGeometry>
        </mxCell>
        <mxCell id="hDukkaT7l1Hp4GkBRoLi-51" value="" style="edgeStyle=orthogonalEdgeStyle;rounded=1;orthogonalLoop=1;jettySize=auto;html=1;" edge="1" parent="hDukkaT7l1Hp4GkBRoLi-5" source="hDukkaT7l1Hp4GkBRoLi-12" target="hDukkaT7l1Hp4GkBRoLi-50">
          <mxGeometry relative="1" as="geometry" />
        </mxCell>
        <mxCell id="hDukkaT7l1Hp4GkBRoLi-12" value="Confirmation received" style="points=[[0.25,0.25,0],[0.5,0,0],[0.75,0.25,0],[1,0.5,0],[0.75,0.75,0],[0.5,1,0],[0.25,0.75,0],[0,0.5,0]];shape=mxgraph.bpmn.gateway2;html=1;verticalLabelPosition=bottom;labelBackgroundColor=#ffffff;verticalAlign=top;align=center;perimeter=rhombusPerimeter;outlineConnect=0;outline=none;symbol=none;gwType=exclusive;rounded=1;" vertex="1" parent="hDukkaT7l1Hp4GkBRoLi-5">
          <mxGeometry x="430" y="30" width="50" height="50" as="geometry" />
        </mxCell>
        <mxCell id="hDukkaT7l1Hp4GkBRoLi-76" style="edgeStyle=orthogonalEdgeStyle;rounded=1;orthogonalLoop=1;jettySize=auto;html=1;entryX=0;entryY=0.5;entryDx=0;entryDy=0;entryPerimeter=0;" edge="1" parent="hDukkaT7l1Hp4GkBRoLi-5" source="hDukkaT7l1Hp4GkBRoLi-50" target="hDukkaT7l1Hp4GkBRoLi-66">
          <mxGeometry relative="1" as="geometry" />
        </mxCell>
        <mxCell id="hDukkaT7l1Hp4GkBRoLi-50" value="Support handover" style="whiteSpace=wrap;html=1;verticalAlign=top;labelBackgroundColor=#ffffff;rounded=1;" vertex="1" parent="hDukkaT7l1Hp4GkBRoLi-5">
          <mxGeometry x="555" y="25" width="120" height="60" as="geometry" />
        </mxCell>
        <mxCell id="hDukkaT7l1Hp4GkBRoLi-66" value="End" style="points=[[0.145,0.145,0],[0.5,0,0],[0.855,0.145,0],[1,0.5,0],[0.855,0.855,0],[0.5,1,0],[0.145,0.855,0],[0,0.5,0]];shape=mxgraph.bpmn.event;html=1;verticalLabelPosition=bottom;labelBackgroundColor=#ffffff;verticalAlign=top;align=center;perimeter=ellipsePerimeter;outlineConnect=0;aspect=fixed;outline=end;symbol=terminate2;rounded=1;" vertex="1" parent="hDukkaT7l1Hp4GkBRoLi-5">
          <mxGeometry x="890" y="30" width="50" height="50" as="geometry" />
        </mxCell>
        <mxCell id="hDukkaT7l1Hp4GkBRoLi-20" style="edgeStyle=orthogonalEdgeStyle;rounded=1;orthogonalLoop=1;jettySize=auto;html=1;dashed=1;endArrow=blockThin;endFill=0;exitX=0.194;exitY=1.011;exitDx=0;exitDy=0;exitPerimeter=0;entryX=0.5;entryY=0;entryDx=0;entryDy=0;entryPerimeter=0;" edge="1" parent="1" source="hDukkaT7l1Hp4GkBRoLi-8" target="hDukkaT7l1Hp4GkBRoLi-18">
          <mxGeometry relative="1" as="geometry">
            <Array as="points">
              <mxPoint x="189" y="285" />
              <mxPoint x="165" y="285" />
            </Array>
          </mxGeometry>
        </mxCell>
        <mxCell id="hDukkaT7l1Hp4GkBRoLi-22" style="rounded=1;orthogonalLoop=1;jettySize=auto;html=1;dashed=1;endArrow=block;endFill=0;edgeStyle=orthogonalEdgeStyle;exitX=0.75;exitY=1.025;exitDx=0;exitDy=0;exitPerimeter=0;" edge="1" parent="1" source="hDukkaT7l1Hp4GkBRoLi-8" target="hDukkaT7l1Hp4GkBRoLi-21">
          <mxGeometry relative="1" as="geometry">
            <mxPoint x="220" y="202" as="sourcePoint" />
            <Array as="points">
              <mxPoint x="245" y="305" />
              <mxPoint x="245" y="305" />
            </Array>
          </mxGeometry>
        </mxCell>
        <mxCell id="hDukkaT7l1Hp4GkBRoLi-25" style="edgeStyle=orthogonalEdgeStyle;rounded=1;orthogonalLoop=1;jettySize=auto;html=1;dashed=1;endArrow=block;endFill=0;" edge="1" parent="1" source="hDukkaT7l1Hp4GkBRoLi-14" target="hDukkaT7l1Hp4GkBRoLi-16">
          <mxGeometry relative="1" as="geometry">
            <Array as="points">
              <mxPoint x="300" y="285" />
              <mxPoint x="375" y="285" />
            </Array>
          </mxGeometry>
        </mxCell>
        <mxCell id="hDukkaT7l1Hp4GkBRoLi-31" value="" style="shape=note;whiteSpace=wrap;html=1;backgroundOutline=1;darkOpacity=0.05;rounded=1;size=14;" vertex="1" parent="1">
          <mxGeometry x="390" y="265" width="23.622" height="31.496" as="geometry" />
        </mxCell>
        <mxCell id="hDukkaT7l1Hp4GkBRoLi-34" value="Termination agreement" style="text;html=1;strokeColor=none;fillColor=none;align=center;verticalAlign=middle;whiteSpace=wrap;rounded=0;" vertex="1" parent="1">
          <mxGeometry x="420" y="266.5" width="60" height="30" as="geometry" />
        </mxCell>
        <mxCell id="hDukkaT7l1Hp4GkBRoLi-2" value="Employee Manager" style="swimlane;startSize=20;horizontal=0;html=1;rounded=1;" vertex="1" parent="1">
          <mxGeometry x="40" y="315" width="1070" height="120" as="geometry">
            <mxRectangle x="20" width="990" height="30" as="alternateBounds" />
          </mxGeometry>
        </mxCell>
        <mxCell id="hDukkaT7l1Hp4GkBRoLi-47" style="edgeStyle=orthogonalEdgeStyle;rounded=1;orthogonalLoop=1;jettySize=auto;html=1;" edge="1" parent="hDukkaT7l1Hp4GkBRoLi-2" source="hDukkaT7l1Hp4GkBRoLi-21" target="hDukkaT7l1Hp4GkBRoLi-46">
          <mxGeometry relative="1" as="geometry" />
        </mxCell>
        <mxCell id="hDukkaT7l1Hp4GkBRoLi-21" value="Notify leaving" style="points=[[0.145,0.145,0],[0.5,0,0],[0.855,0.145,0],[1,0.5,0],[0.855,0.855,0],[0.5,1,0],[0.145,0.855,0],[0,0.5,0]];shape=mxgraph.bpmn.event;html=1;verticalLabelPosition=bottom;labelBackgroundColor=#ffffff;verticalAlign=top;align=center;perimeter=ellipsePerimeter;outlineConnect=0;aspect=fixed;outline=standard;symbol=message;rounded=1;" vertex="1" parent="hDukkaT7l1Hp4GkBRoLi-2">
          <mxGeometry x="180" y="29" width="50" height="50" as="geometry" />
        </mxCell>
        <mxCell id="hDukkaT7l1Hp4GkBRoLi-75" style="edgeStyle=orthogonalEdgeStyle;rounded=1;orthogonalLoop=1;jettySize=auto;html=1;entryX=0;entryY=0.5;entryDx=0;entryDy=0;entryPerimeter=0;" edge="1" parent="hDukkaT7l1Hp4GkBRoLi-2" source="hDukkaT7l1Hp4GkBRoLi-46" target="hDukkaT7l1Hp4GkBRoLi-73">
          <mxGeometry relative="1" as="geometry" />
        </mxCell>
        <mxCell id="hDukkaT7l1Hp4GkBRoLi-46" value="Securing Knowledge&lt;br&gt;(Prepare handover, checklist, etc)" style="points=[[0.25,0,0],[0.5,0,0],[0.75,0,0],[1,0.25,0],[1,0.5,0],[1,0.75,0],[0.75,1,0],[0.5,1,0],[0.25,1,0],[0,0.75,0],[0,0.5,0],[0,0.25,0]];shape=mxgraph.bpmn.task;whiteSpace=wrap;rectStyle=rounded;size=10;html=1;container=1;expand=0;collapsible=0;taskMarker=abstract;rounded=1;" vertex="1" parent="hDukkaT7l1Hp4GkBRoLi-2">
          <mxGeometry x="480" y="24" width="140" height="60" as="geometry" />
        </mxCell>
        <mxCell id="hDukkaT7l1Hp4GkBRoLi-73" value="" style="points=[[0.145,0.145,0],[0.5,0,0],[0.855,0.145,0],[1,0.5,0],[0.855,0.855,0],[0.5,1,0],[0.145,0.855,0],[0,0.5,0]];shape=mxgraph.bpmn.event;html=1;verticalLabelPosition=bottom;labelBackgroundColor=#ffffff;verticalAlign=top;align=center;perimeter=ellipsePerimeter;outlineConnect=0;aspect=fixed;outline=end;symbol=message;rounded=1;" vertex="1" parent="hDukkaT7l1Hp4GkBRoLi-2">
          <mxGeometry x="1000" y="29" width="50" height="50" as="geometry" />
        </mxCell>
        <mxCell id="hDukkaT7l1Hp4GkBRoLi-77" value="Removal process of systems access completed" style="text;html=1;strokeColor=none;fillColor=none;align=center;verticalAlign=middle;whiteSpace=wrap;rounded=0;" vertex="1" parent="hDukkaT7l1Hp4GkBRoLi-2">
          <mxGeometry x="840" y="14" width="150" height="30" as="geometry" />
        </mxCell>
        <mxCell id="hDukkaT7l1Hp4GkBRoLi-48" style="edgeStyle=orthogonalEdgeStyle;rounded=1;orthogonalLoop=1;jettySize=auto;html=1;entryX=0.452;entryY=1.028;entryDx=0;entryDy=0;entryPerimeter=0;dashed=1;endArrow=block;endFill=0;" edge="1" parent="1" source="hDukkaT7l1Hp4GkBRoLi-27" target="hDukkaT7l1Hp4GkBRoLi-46">
          <mxGeometry relative="1" as="geometry">
            <Array as="points">
              <mxPoint x="443" y="455" />
              <mxPoint x="583" y="455" />
            </Array>
          </mxGeometry>
        </mxCell>
        <mxCell id="hDukkaT7l1Hp4GkBRoLi-52" style="edgeStyle=orthogonalEdgeStyle;rounded=1;orthogonalLoop=1;jettySize=auto;html=1;endArrow=block;endFill=0;dashed=1;startArrow=block;startFill=0;" edge="1" parent="1" source="hDukkaT7l1Hp4GkBRoLi-46" target="hDukkaT7l1Hp4GkBRoLi-50">
          <mxGeometry relative="1" as="geometry">
            <Array as="points">
              <mxPoint x="590" y="285" />
              <mxPoint x="655" y="285" />
            </Array>
          </mxGeometry>
        </mxCell>
        <mxCell id="hDukkaT7l1Hp4GkBRoLi-80" style="edgeStyle=orthogonalEdgeStyle;rounded=1;orthogonalLoop=1;jettySize=auto;html=1;dashed=1;endArrow=block;endFill=0;exitX=0.868;exitY=0.031;exitDx=0;exitDy=0;exitPerimeter=0;entryX=0.5;entryY=1;entryDx=0;entryDy=0;entryPerimeter=0;" edge="1" parent="1" source="hDukkaT7l1Hp4GkBRoLi-64" target="hDukkaT7l1Hp4GkBRoLi-73">
          <mxGeometry relative="1" as="geometry">
            <mxPoint x="1026" y="584" as="sourcePoint" />
            <mxPoint x="1050" y="515" as="targetPoint" />
          </mxGeometry>
        </mxCell>
      </root>
    </mxGraphModel>
  </diagram>
</mxfile>
